<svg width="15" height="16" viewBox="0 0 15 16" fill="none" xmlns="http://www.w3.org/2000/svg">
<circle cx="7.5" cy="8.5" r="7.5" fill="#B7B7B6"/>
<path d="M6.47443 10.1655V10.0085C6.47751 9.46993 6.52521 9.0406 6.61754 8.72053C6.71295 8.40045 6.85144 8.14193 7.03303 7.94496C7.21461 7.74799 7.43312 7.56948 7.68857 7.40945C7.87938 7.28634 8.05019 7.15862 8.20099 7.02628C8.3518 6.89394 8.47183 6.74775 8.56108 6.58771C8.65033 6.4246 8.69496 6.24302 8.69496 6.04297C8.69496 5.83061 8.64418 5.64441 8.54261 5.48438C8.44105 5.32434 8.3041 5.20123 8.13175 5.11506C7.96248 5.02888 7.77474 4.98579 7.56854 4.98579C7.36849 4.98579 7.17921 5.03042 7.00071 5.11967C6.82221 5.20585 6.67602 5.33511 6.56215 5.50746C6.44827 5.67673 6.38672 5.88755 6.37749 6.13991H4.49396C4.50935 5.52438 4.65708 5.01657 4.93714 4.61648C5.21721 4.2133 5.58807 3.91323 6.04972 3.71626C6.51136 3.51622 7.02071 3.41619 7.57777 3.41619C8.19022 3.41619 8.73189 3.51776 9.20277 3.72088C9.67365 3.92093 10.043 4.21177 10.3107 4.59339C10.5785 4.97502 10.7124 5.43513 10.7124 5.97372C10.7124 6.33381 10.6523 6.65388 10.5323 6.93395C10.4154 7.21094 10.2507 7.45715 10.0384 7.67258C9.82599 7.88494 9.57517 8.0773 9.28587 8.24964C9.04273 8.39429 8.84268 8.5451 8.68572 8.70206C8.53184 8.85902 8.41643 9.0406 8.33949 9.2468C8.26563 9.45301 8.22715 9.70691 8.22408 10.0085V10.1655H6.47443ZM7.38849 13.12C7.08073 13.12 6.81759 13.0123 6.59908 12.7969C6.38364 12.5784 6.27746 12.3168 6.28054 12.0121C6.27746 11.7105 6.38364 11.4519 6.59908 11.2365C6.81759 11.0211 7.08073 10.9134 7.38849 10.9134C7.68087 10.9134 7.93786 11.0211 8.15945 11.2365C8.38104 11.4519 8.49337 11.7105 8.49645 12.0121C8.49337 12.2152 8.43951 12.4014 8.33487 12.5707C8.23331 12.7369 8.09943 12.8707 7.93324 12.9723C7.76705 13.0708 7.58546 13.12 7.38849 13.12Z" fill="white"/>
</svg>
