<svg width="12" height="15" viewBox="0 0 12 15" fill="none" xmlns="http://www.w3.org/2000/svg">
<rect x="2.69666" width="1.34832" height="1.34832" fill="#80100F"/>
<rect x="2.69666" y="1.34863" width="1.34832" height="1.34832" fill="#FFA29B"/>
<rect x="2.69666" y="2.69629" width="1.34832" height="1.34832" fill="#FF8E81"/>
<rect x="1.34839" y="10.3818" width="1.34832" height="1.34832" fill="#B5DC82"/>
<rect width="1.34832" height="1.34832" transform="matrix(-1 0 0 1 10.6517 10.3818)" fill="#99C260"/>
<rect x="4.04492" y="2.69629" width="1.34832" height="1.34832" fill="#ED3A3B"/>
<rect x="2.69666" y="10.3818" width="1.34832" height="1.34832" fill="#7DA74B"/>
<rect width="1.34832" height="1.34832" transform="matrix(-1 0 0 1 9.30334 10.3818)" fill="#B5DC82"/>
<rect x="5.39319" y="2.69629" width="1.34832" height="1.34832" fill="#F53737"/>
<rect x="6.74158" y="2.69629" width="1.34832" height="1.34832" fill="#D60508"/>
<rect x="6.74158" y="4.0459" width="1.34832" height="1.07865" fill="#D50709"/>
<rect x="5.39319" y="4.0459" width="1.34832" height="1.07865" fill="#DF120D"/>
<rect x="4.04492" y="11.7305" width="1.34832" height="1.21349" fill="#81AD46"/>
<rect width="1.34832" height="1.21349" transform="matrix(-1 0 0 1 8.08984 11.7305)" fill="#7AA637"/>
<rect x="4.04492" y="4.0459" width="1.34832" height="1.07865" fill="#E92C30"/>
<rect x="2.69666" y="11.7305" width="1.34832" height="1.21349" fill="#72A132"/>
<rect width="1.21349" height="1.21349" transform="matrix(-1 0 0 1 9.30334 11.7305)" fill="#6E9836"/>
<rect x="2.69666" y="4.0459" width="1.34832" height="1.07865" fill="#FA5955"/>
<rect x="1.34839" y="11.7305" width="1.34832" height="1.21349" fill="#7FA93B"/>
<rect width="1.34832" height="1.21349" transform="matrix(-1 0 0 1 10.6517 11.7305)" fill="#7FA93B"/>
<rect x="5.39319" y="1.34863" width="1.34832" height="1.34832" fill="#FA6465"/>
<rect x="4.04492" y="1.34863" width="1.34832" height="1.34832" fill="#A2090B"/>
<rect x="6.74158" y="1.34863" width="1.34832" height="1.34832" fill="#E5181D"/>
<rect x="2.69666" y="5.12402" width="1.34832" height="1.34832" fill="#95050E"/>
<rect x="5.39319" width="1.34832" height="1.34832" fill="#80100F"/>
<rect x="8.08984" width="1.34832" height="1.34832" fill="#80100F"/>
<rect x="8.08984" y="5.12402" width="1.34832" height="1.34832" fill="#95050E"/>
<rect x="1.34839" y="1.34863" width="1.34832" height="3.77529" fill="#80100F"/>
<rect x="9.43823" y="1.34863" width="1.34832" height="3.77529" fill="#80100F"/>
<rect x="8.08984" y="1.34863" width="1.34832" height="3.77529" fill="#CF0707"/>
<rect x="7.82019" y="6.47168" width="1.34832" height="3.77529" transform="rotate(90 7.82019 6.47168)" fill="#8C0600"/>
<rect x="8.08984" y="5.12402" width="1.34832" height="4.04495" transform="rotate(90 8.08984 5.12402)" fill="#D60A09"/>
<rect x="5.39319" y="7.82031" width="1.34832" height="2.69663" fill="#4C631F"/>
<rect x="5.39319" y="10.5176" width="1.34832" height="2.69663" fill="#3D630C"/>
<rect y="10.3818" width="1.34832" height="2.5618" fill="#486026"/>
<rect x="10.6517" y="10.3818" width="1.34832" height="2.5618" fill="#486026"/>
<rect x="7.95508" y="10.3818" width="1.34832" height="3.91012" transform="rotate(90 7.95508 10.3818)" fill="#4C631F"/>
<rect x="4.04492" y="9.0332" width="1.34832" height="2.69663" transform="rotate(90 4.04492 9.0332)" fill="#465F26"/>
<rect x="10.6517" y="9.0332" width="1.34832" height="2.69663" transform="rotate(90 10.6517 9.0332)" fill="#465F26"/>
<rect x="10.6517" y="12.9434" width="1.34832" height="9.30339" transform="rotate(90 10.6517 12.9434)" fill="#4C631F"/>
</svg>
