<svg width="15" height="19" viewBox="0 0 15 19" fill="none" xmlns="http://www.w3.org/2000/svg">
<rect x="3.33337" width="3.33333" height="1.66667" fill="#15450B"/>
<rect x="1.66663" y="6.66699" width="5" height="1.66667" fill="#15450B"/>
<rect x="8.33337" y="6.66699" width="5" height="1.66667" fill="#15450B"/>
<rect x="6.66663" y="6.66699" width="5" height="1.66667" transform="rotate(-90 6.66663 6.66699)" fill="#15450B"/>
<rect x="1.66663" y="1.66699" width="1.66667" height="1.66667" fill="#15450B"/>
<rect y="3.33301" width="1.66667" height="3.33333" fill="#15450B"/>
<rect x="13.3334" y="3.33301" width="1.66667" height="3.33333" fill="#15450B"/>
<rect x="11.6666" y="1.66699" width="1.66667" height="1.66667" fill="#15450B"/>
<rect x="8.33337" width="3.33333" height="1.66667" fill="#15450B"/>
<rect x="11.6666" y="15" width="3.33333" height="1.66667" transform="rotate(-180 11.6666 15)" fill="#15450B"/>
<rect x="8.33337" y="8.33301" width="5" height="1.66667" transform="rotate(90 8.33337 8.33301)" fill="#15450B"/>
<rect x="13.3334" y="13.333" width="1.66667" height="1.66667" transform="rotate(-180 13.3334 13.333)" fill="#15450B"/>
<rect x="8.33337" y="16.667" width="1.66667" height="1.66667" transform="rotate(-180 8.33337 16.667)" fill="#183F24"/>
<rect x="6.66663" y="18.333" width="1.66667" height="1.66667" transform="rotate(-180 6.66663 18.333)" fill="#183F24"/>
<rect x="15" y="11.667" width="1.66667" height="3.33333" transform="rotate(-180 15 11.667)" fill="#15450B"/>
<rect x="1.66663" y="11.667" width="1.66667" height="3.33333" transform="rotate(-180 1.66663 11.667)" fill="#15450B"/>
<rect x="3.33337" y="13.333" width="1.66667" height="1.66667" transform="rotate(-180 3.33337 13.333)" fill="#15450B"/>
<rect x="6.66663" y="15" width="3.33333" height="1.66667" transform="rotate(-180 6.66663 15)" fill="#15450B"/>
<rect x="3.33337" y="3.33301" width="1.66667" height="1.66667" fill="#006800"/>
<rect x="3.33337" y="1.66602" width="1.66667" height="1.66667" fill="#50A444"/>
<rect x="5.00012" y="1.66602" width="1.66667" height="1.66667" fill="#77D864"/>
<rect x="5.00012" y="3.33301" width="1.66667" height="1.66667" fill="#4DBE2D"/>
<rect x="1.66675" y="3.33301" width="1.66667" height="1.66667" fill="#50A444"/>
<rect x="5.00012" y="4.99902" width="1.66667" height="1.66667" fill="#4EB937"/>
<rect x="1.66675" y="4.99902" width="1.66667" height="1.66667" fill="#77D864"/>
<rect x="3.33337" y="4.99902" width="1.66667" height="1.66667" fill="#39A826"/>
<rect x="11.6666" y="3.33301" width="1.66667" height="1.66667" transform="rotate(90 11.6666 3.33301)" fill="#006800"/>
<rect x="13.3333" y="3.33301" width="1.66667" height="1.66667" transform="rotate(90 13.3333 3.33301)" fill="#50A444"/>
<rect x="13.3333" y="4.99902" width="1.66667" height="1.66667" transform="rotate(90 13.3333 4.99902)" fill="#77D864"/>
<rect x="11.6666" y="4.99902" width="1.66667" height="1.66667" transform="rotate(90 11.6666 4.99902)" fill="#4DBE2D"/>
<rect x="11.6666" y="1.66602" width="1.66667" height="1.66667" transform="rotate(90 11.6666 1.66602)" fill="#50A444"/>
<rect x="9.99988" y="4.99902" width="1.66667" height="1.66667" transform="rotate(90 9.99988 4.99902)" fill="#4EB937"/>
<rect x="9.99988" y="1.66602" width="1.66667" height="1.66667" transform="rotate(90 9.99988 1.66602)" fill="#77D864"/>
<rect x="9.99988" y="3.33301" width="1.66667" height="1.66667" transform="rotate(90 9.99988 3.33301)" fill="#39A826"/>
<rect x="11.6666" y="11.667" width="1.66667" height="1.66667" transform="rotate(-180 11.6666 11.667)" fill="#006800"/>
<rect x="11.6666" y="13.334" width="1.66667" height="1.66667" transform="rotate(-180 11.6666 13.334)" fill="#50A444"/>
<rect x="9.99988" y="13.334" width="1.66667" height="1.66667" transform="rotate(-180 9.99988 13.334)" fill="#77D864"/>
<rect x="9.99988" y="11.667" width="1.66667" height="1.66667" transform="rotate(-180 9.99988 11.667)" fill="#4DBE2D"/>
<rect x="13.3333" y="11.667" width="1.66667" height="1.66667" transform="rotate(-180 13.3333 11.667)" fill="#50A444"/>
<rect x="9.99988" y="10.001" width="1.66667" height="1.66667" transform="rotate(-180 9.99988 10.001)" fill="#4EB937"/>
<rect x="13.3333" y="10.001" width="1.66667" height="1.66667" transform="rotate(-180 13.3333 10.001)" fill="#77D864"/>
<rect x="11.6666" y="10.001" width="1.66667" height="1.66667" transform="rotate(-180 11.6666 10.001)" fill="#39A826"/>
<rect width="1.66667" height="1.66667" transform="matrix(1 0 0 -1 3.33337 11.667)" fill="#006800"/>
<rect width="1.66667" height="1.66667" transform="matrix(1 0 0 -1 3.33337 13.334)" fill="#50A444"/>
<rect width="1.66667" height="1.66667" transform="matrix(1 0 0 -1 5.00012 13.334)" fill="#77D864"/>
<rect width="1.66667" height="1.66667" transform="matrix(1 0 0 -1 5.00012 11.667)" fill="#4DBE2D"/>
<rect width="1.66667" height="1.66667" transform="matrix(1 0 0 -1 1.66675 11.667)" fill="#50A444"/>
<rect width="1.66667" height="1.66667" transform="matrix(1 0 0 -1 5.00012 10.001)" fill="#4EB937"/>
<rect width="1.66667" height="1.66667" transform="matrix(1 0 0 -1 1.66675 10.001)" fill="#77D864"/>
<rect width="1.66667" height="1.66667" transform="matrix(1 0 0 -1 3.33337 10.001)" fill="#39A826"/>
</svg>
