<svg width="14" height="17" viewBox="0 0 14 17" fill="none" xmlns="http://www.w3.org/2000/svg">
<rect x="3.09094" width="3.09091" height="1.54545" fill="#15450B"/>
<rect x="1.54541" y="6.18164" width="4.63636" height="1.54545" fill="#15450B"/>
<rect x="7.72729" y="6.18164" width="4.63636" height="1.54545" fill="#15450B"/>
<rect x="6.18176" y="6.18164" width="4.63636" height="1.54545" transform="rotate(-90 6.18176 6.18164)" fill="#15450B"/>
<rect x="1.54541" y="1.5459" width="1.54545" height="1.54545" fill="#15450B"/>
<rect y="3.09082" width="1.54545" height="3.09091" fill="#15450B"/>
<rect x="12.3636" y="3.09082" width="1.54545" height="3.09091" fill="#15450B"/>
<rect x="10.8181" y="1.5459" width="1.54545" height="1.54545" fill="#15450B"/>
<rect x="7.72729" width="3.09091" height="1.54545" fill="#15450B"/>
<rect x="10.8181" y="13.9092" width="3.09091" height="1.54545" transform="rotate(-180 10.8181 13.9092)" fill="#15450B"/>
<rect x="7.72729" y="7.72656" width="4.63636" height="1.54545" transform="rotate(90 7.72729 7.72656)" fill="#15450B"/>
<rect x="12.3636" y="12.3633" width="1.54545" height="1.54545" transform="rotate(-180 12.3636 12.3633)" fill="#15450B"/>
<rect x="7.72729" y="15.4551" width="1.54545" height="1.54545" transform="rotate(-180 7.72729 15.4551)" fill="#183F24"/>
<rect x="6.18176" y="17" width="1.54545" height="1.54545" transform="rotate(-180 6.18176 17)" fill="#183F24"/>
<rect x="13.9091" y="10.8184" width="1.54545" height="3.09091" transform="rotate(-180 13.9091 10.8184)" fill="#15450B"/>
<rect x="1.54541" y="10.8184" width="1.54545" height="3.09091" transform="rotate(-180 1.54541 10.8184)" fill="#15450B"/>
<rect x="3.09094" y="12.3633" width="1.54545" height="1.54545" transform="rotate(-180 3.09094 12.3633)" fill="#15450B"/>
<rect x="6.18176" y="13.9092" width="3.09091" height="1.54545" transform="rotate(-180 6.18176 13.9092)" fill="#15450B"/>
<rect x="3.09094" y="3.09082" width="1.54545" height="1.54545" fill="#006800"/>
<rect x="3.09094" y="1.54492" width="1.54545" height="1.54545" fill="#50A444"/>
<rect x="4.63647" y="1.54492" width="1.54545" height="1.54545" fill="#77D864"/>
<rect x="4.63647" y="3.09082" width="1.54545" height="1.54545" fill="#4DBE2D"/>
<rect x="1.54553" y="3.09082" width="1.54545" height="1.54545" fill="#50A444"/>
<rect x="4.63647" y="4.63574" width="1.54545" height="1.54545" fill="#4EB937"/>
<rect x="1.54553" y="4.63574" width="1.54545" height="1.54545" fill="#77D864"/>
<rect x="3.09094" y="4.63574" width="1.54545" height="1.54545" fill="#39A826"/>
<rect x="10.8181" y="3.09082" width="1.54545" height="1.54545" transform="rotate(90 10.8181 3.09082)" fill="#006800"/>
<rect x="12.3635" y="3.09082" width="1.54545" height="1.54545" transform="rotate(90 12.3635 3.09082)" fill="#50A444"/>
<rect x="12.3635" y="4.63574" width="1.54545" height="1.54545" transform="rotate(90 12.3635 4.63574)" fill="#77D864"/>
<rect x="10.8181" y="4.63574" width="1.54545" height="1.54545" transform="rotate(90 10.8181 4.63574)" fill="#4DBE2D"/>
<rect x="10.8181" y="1.54492" width="1.54545" height="1.54545" transform="rotate(90 10.8181 1.54492)" fill="#50A444"/>
<rect x="9.27258" y="4.63574" width="1.54545" height="1.54545" transform="rotate(90 9.27258 4.63574)" fill="#4EB937"/>
<rect x="9.27258" y="1.54492" width="1.54545" height="1.54545" transform="rotate(90 9.27258 1.54492)" fill="#77D864"/>
<rect x="9.27258" y="3.09082" width="1.54545" height="1.54545" transform="rotate(90 9.27258 3.09082)" fill="#39A826"/>
<rect x="10.8181" y="10.8184" width="1.54545" height="1.54545" transform="rotate(-180 10.8181 10.8184)" fill="#006800"/>
<rect x="10.8181" y="12.3643" width="1.54545" height="1.54545" transform="rotate(-180 10.8181 12.3643)" fill="#50A444"/>
<rect x="9.27258" y="12.3643" width="1.54545" height="1.54545" transform="rotate(-180 9.27258 12.3643)" fill="#77D864"/>
<rect x="9.27258" y="10.8184" width="1.54545" height="1.54545" transform="rotate(-180 9.27258 10.8184)" fill="#4DBE2D"/>
<rect x="12.3635" y="10.8184" width="1.54545" height="1.54545" transform="rotate(-180 12.3635 10.8184)" fill="#50A444"/>
<rect x="9.27258" y="9.27344" width="1.54545" height="1.54545" transform="rotate(-180 9.27258 9.27344)" fill="#4EB937"/>
<rect x="12.3635" y="9.27344" width="1.54545" height="1.54545" transform="rotate(-180 12.3635 9.27344)" fill="#77D864"/>
<rect x="10.8181" y="9.27344" width="1.54545" height="1.54545" transform="rotate(-180 10.8181 9.27344)" fill="#39A826"/>
<rect width="1.54545" height="1.54545" transform="matrix(1 0 0 -1 3.09094 10.8184)" fill="#006800"/>
<rect width="1.54545" height="1.54545" transform="matrix(1 0 0 -1 3.09094 12.3643)" fill="#50A444"/>
<rect width="1.54545" height="1.54545" transform="matrix(1 0 0 -1 4.63647 12.3643)" fill="#77D864"/>
<rect width="1.54545" height="1.54545" transform="matrix(1 0 0 -1 4.63647 10.8184)" fill="#4DBE2D"/>
<rect width="1.54545" height="1.54545" transform="matrix(1 0 0 -1 1.54553 10.8184)" fill="#50A444"/>
<rect width="1.54545" height="1.54545" transform="matrix(1 0 0 -1 4.63647 9.27344)" fill="#4EB937"/>
<rect width="1.54545" height="1.54545" transform="matrix(1 0 0 -1 1.54553 9.27344)" fill="#77D864"/>
<rect width="1.54545" height="1.54545" transform="matrix(1 0 0 -1 3.09094 9.27344)" fill="#39A826"/>
</svg>
