<svg width="9" height="12" viewBox="0 0 9 12" fill="none" xmlns="http://www.w3.org/2000/svg">
<path fill-rule="evenodd" clip-rule="evenodd" d="M6.12134 0.856978L6.07686 0.905842C6.01909 0.969141 5.96062 1.03179 5.90145 1.09378C5.8705 1.0531 5.83959 1.01238 5.80873 0.971622C5.61578 0.721034 5.4529 0.536852 5.27811 0.389632C5.0388 0.187282 4.78947 0.0651206 4.50004 0.0651206C4.34342 0.0651206 4.19495 0.103335 4.05524 0.17162C3.74953 0.319467 3.52274 0.566922 3.22016 0.989789C3.19496 1.02519 3.1699 1.06069 3.14498 1.09629C3.08735 1.03991 3.02157 0.972248 2.94451 0.891433L2.90254 0.847581C2.55548 0.482976 2.46338 0.390258 2.30802 0.263711C2.16143 0.144056 2.02924 0.0632412 1.86636 0.0231472C1.69342 -0.0221541 1.50975 -0.000467282 1.35212 0.0838664C1.19449 0.1682 1.07452 0.308958 1.01624 0.477964C0.833181 0.985645 0.740112 1.52138 0.741221 2.06105C0.741221 4.52934 2.12697 6.26591 4.50004 6.26591C6.8731 6.26591 8.25885 4.52997 8.25885 2.06105C8.26008 1.52131 8.16679 0.985524 7.98321 0.477964C7.92517 0.308425 7.80489 0.167268 7.64671 0.0830603C7.48853 -0.00114718 7.30426 -0.0221152 7.13121 0.0244001C6.96707 0.0663735 6.83677 0.149068 6.69268 0.271855C6.54233 0.398402 6.45775 0.488614 6.12134 0.856978ZM4.50004 5.01297C2.88876 5.01297 1.99416 3.89159 1.99416 2.06105C1.99416 1.94829 1.9998 1.8374 2.00982 1.72714L2.03927 1.75721C2.29486 2.02534 2.45273 2.1782 2.61562 2.3035C3.02157 2.61422 3.43253 2.73513 3.80841 2.30537C3.87607 2.22832 3.94248 2.14124 4.03144 2.01532L4.07842 1.94766L4.23942 1.719C4.34906 1.56489 4.44115 1.4515 4.50818 1.38071C4.62012 1.49143 4.72337 1.6106 4.81703 1.73717C4.78884 1.70083 5.16159 2.19887 5.25556 2.30537C5.63269 2.73701 6.04867 2.61234 6.44522 2.29911C6.60184 2.17382 6.75345 2.02158 6.99276 1.76035C7.00153 1.85996 7.00591 1.96019 7.00591 2.06105C7.00591 3.89222 6.11132 5.01297 4.50004 5.01297Z" fill="#FF9089"/>
<path d="M4.50004 5.01297C2.88876 5.01297 1.99416 3.89159 1.99416 2.06105C1.99416 1.94829 1.9998 1.8374 2.00982 1.72714L2.03927 1.75721C2.29486 2.02534 2.45273 2.1782 2.61562 2.3035C3.02157 2.61422 3.43253 2.73513 3.80841 2.30537C3.87607 2.22832 3.94248 2.14124 4.03144 2.01532L4.07842 1.94766L4.23942 1.719C4.34906 1.56489 4.44115 1.4515 4.50818 1.38071C4.62012 1.49143 4.72337 1.6106 4.81703 1.73717C4.78884 1.70083 5.16159 2.19887 5.25556 2.30537C5.63269 2.73701 6.04867 2.61234 6.44522 2.29911C6.60184 2.17382 6.75345 2.02158 6.99276 1.76035C7.00153 1.85996 7.00591 1.96019 7.00591 2.06105C7.00591 3.89222 6.11132 5.01297 4.50004 5.01297Z" fill="#FF9089"/>
<path d="M3.87354 6.26514C3.87354 6.09899 3.93954 5.93965 4.05702 5.82216C4.17451 5.70467 4.33385 5.63867 4.5 5.63867C4.66615 5.63867 4.8255 5.70467 4.94298 5.82216C5.06047 5.93965 5.12647 6.09899 5.12647 6.26514V10.3372C5.12647 10.5033 5.06047 10.6627 4.94298 10.7802C4.8255 10.8977 4.66615 10.9637 4.5 10.9637C4.33385 10.9637 4.17451 10.8977 4.05702 10.7802C3.93954 10.6627 3.87354 10.5033 3.87354 10.3372V6.26514Z" fill="#40BF80"/>
<path fill-rule="evenodd" clip-rule="evenodd" d="M5.66542 7.96815C4.43967 9.01103 3.63353 10.3365 4.29774 11.1389C4.95185 11.9293 6.75486 11.496 7.82915 10.5816C8.87707 9.69055 9.35503 8.40089 8.70204 7.61219C8.04905 6.82349 6.71334 7.07653 5.66542 7.96815ZM5.19027 10.4292C5.18319 10.4266 5.17641 10.4231 5.17007 10.419L5.18017 10.436C5.18466 10.4394 5.18746 10.4383 5.19027 10.4292ZM7.10772 9.71046C6.48671 10.2393 5.41691 10.5191 5.19027 10.4292C5.19185 10.4236 5.19316 10.4179 5.19419 10.4122C5.21551 10.3047 5.28171 10.1523 5.38942 9.97487C5.61606 9.60185 5.9936 9.17366 6.38685 8.83931C7.02301 8.29796 7.699 8.17002 7.84261 8.34345C7.98622 8.51689 7.74444 9.16911 7.10772 9.71046Z" fill="#40BF80"/>
<path d="M5.19027 10.4292C5.41691 10.5191 6.48671 10.2393 7.10772 9.71046C7.74444 9.16911 7.98622 8.51689 7.84261 8.34345C7.699 8.17002 7.02301 8.29796 6.38685 8.83931C5.9936 9.17366 5.61606 9.60185 5.38942 9.97487C5.28171 10.1523 5.21551 10.3047 5.19419 10.4122C5.19316 10.4179 5.19185 10.4236 5.19027 10.4292Z" fill="#40BF80"/>
<path fill-rule="evenodd" clip-rule="evenodd" d="M3.33438 7.96815C4.56079 9.01103 5.36643 10.3365 4.70217 11.1389C4.04801 11.9293 2.24543 11.496 1.17106 10.5816C0.122498 9.69055 -0.354937 8.40089 0.2981 7.61219C0.951136 6.82349 2.28638 7.07653 3.33438 7.96815ZM3.81013 10.4292C3.81702 10.4265 3.82361 10.4231 3.82977 10.419L3.81967 10.436C3.81518 10.4394 3.81238 10.4383 3.81013 10.4292ZM1.89142 9.71102C2.51304 10.2399 3.58292 10.5196 3.80957 10.4298C3.80798 10.4242 3.80667 10.4185 3.80565 10.4127C3.78433 10.3052 3.71813 10.1529 3.61041 9.97544C3.38319 9.60242 3.00618 9.17423 2.6129 8.83987C1.97613 8.29853 1.3001 8.17059 1.15703 8.34402C1.01341 8.51746 1.25521 9.16968 1.89198 9.71102H1.89142Z" fill="#40BF80"/>
<path d="M1.89142 9.71102C2.51304 10.2399 3.58292 10.5196 3.80957 10.4298C3.80798 10.4242 3.80667 10.4185 3.80565 10.4127C3.78433 10.3052 3.71813 10.1529 3.61041 9.97544C3.38319 9.60242 3.00618 9.17423 2.6129 8.83987C1.97613 8.29853 1.3001 8.17059 1.15703 8.34402C1.01341 8.51746 1.25521 9.16968 1.89198 9.71102H1.89142Z" fill="#40BF80"/>
</svg>
